#!OML:ASF H:\Terrain\Walking\May29\JustinRory\Justin.ASF
:FULLY-SPECIFIED
:DEGREES
1792
root 10.401 17.5558 6.70636 -174.671 -47.0801 182.091
lowerback 8.66633 -3.05191 -2.12609
upperback 1.06711 -4.24599 2.09516
thorax -3.42762 -2.09966 3.84754
lowerneck 2.0204 -16.4801 -18.718
upperneck 1.23189 -23.0151 17.0019
head 4.18473 -11.5212 6.55662
rclavicle 9.31803e-018 1.61513e-014
rhumerus -33.6645 -7.36986 -77.2255
rradius 43.0428
rwrist -10.6748
rhand -4.47152 22.0273
rfingers 7.12502
rthumb 21.3011 -6.82206
lclavicle 9.31803e-018 1.61513e-014
lhumerus -40.3207 15.6627 72.7304
lradius 33.5605
lwrist -12.3929
lhand 2.5605 44.8992
lfingers 7.12502
lthumb 28.0405 72.824
rfemur -27.0752 3.36185 9.15815
rtibia 17.0788
rfoot 0.492338 -10.9796
rtoes -7.68194
lfemur 0.797213 0.0888273 -16.4378
ltibia 21.5936
lfoot -22.2641 6.85877
ltoes -10.6355
1793
root 10.4016 17.5648 6.71858 -175.054 -47.102 182.61
lowerback 8.73858 -3.05719 -1.7827
upperback 1.10715 -4.22362 2.132
thorax -3.44996 -2.09425 3.69473
lowerneck 1.99395 -16.4082 -18.8709
upperneck 1.18823 -22.9313 17.2428
head 4.21081 -11.4801 6.65605
rclavicle -1.92856e-014 -1.22082e-014
rhumerus -33.8218 -7.2105 -77.8357
rradius 42.4859
rwrist -10.0098
rhand -10.3345 22.4021
rfingers 7.12502
rthumb 15.6615 -6.98405
lclavicle -1.92856e-014 -1.22082e-014
lhumerus -40.4274 16.201 72.3757
lradius 31.7197
lwrist -12.7982
lhand 2.59435 44.8418
lfingers 7.12502
lthumb 28.0729 72.7612
rfemur -26.9123 3.94232 9.26305
rtibia 17.0447
rfoot -0.358523 -11.7225
rtoes -4.34229
lfemur 0.740508 0.292975 -16.0196
ltibia 21.6276
lfoot -22.1555 6.82718
ltoes -11.3286
1794
root 10.3922 17.5749 6.73189 -174.827 -47.0648 182.285
lowerback 8.69836 -2.96154 -1.88533
upperback 1.13701 -4.10924 1.94857
thorax -3.4114 -2.03652 3.5453
lowerneck 2.12406 -16.3895 -19.0443
upperneck 1.09805 -22.9588 17.6294
head 4.23885 -11.5019 6.79883
rclavicle 8.28684e-014 -2.22887e-014
rhumerus -34.2376 -7.43964 -78.2795
rradius 41.944
rwrist -9.336
rhand -15.8097 23.8526
rfingers 7.12502
rthumb 10.3837 -5.87104
lclavicle 8.28684e-014 -2.22887e-014
lhumerus -40.481 16.4607 72.029
lradius 29.8155
lwrist -13.1657
lhand 2.66642 44.6176
lfingers 7.12502
lthumb 28.1418 72.5257
rfemur -26.68 3.75156 8.9629
rtibia 17.1657
rfoot -1.25862 -11.7072
rtoes -0.572671
lfemur 0.787171 0.406393 -16.3368
ltibia 21.5649
lfoot -21.9913 6.96827
ltoes -11.6179
1795
root 10.3882 17.5877 6.74904 -174.838 -46.8869 182.474
lowerback 8.54933 -2.81136 -1.79305
upperback 1.1666 -3.89915 1.99175
thorax -3.31604 -1.9359 3.50546
lowerneck 2.15818 -16.4734 -19.1483
upperneck 1.06357 -23.0843 17.7316
head 4.27075 -11.565 6.82436
rclavicle -1.49576e-013 -5.29264e-015
rhumerus -34.7438 -7.62861 -78.5143
rradius 41.9863
rwrist -9.17117
rhand -15.7986 23.7339
rfingers 7.12502
rthumb 10.3944 -5.98913
lclavicle -1.49576e-013 -5.29264e-015
lhumerus -40.4116 17.1055 71.7223
lradius 27.8464
lwrist -13.7057
lhand 2.68079 44.1991
lfingers 7.12502
lthumb 28.1555 72.1049
rfemur -26.8797 3.37942 9.19804
rtibia 17.4053
rfoot -1.63104 -11.5013
rtoes -0.00918785
lfemur 0.669962 0.6195 -16.2744
ltibia 21.4642
lfoot -21.8615 6.95089
ltoes -11.7579
1796
root 10.3921 17.597 6.75699 -175.248 -46.8938 182.938
lowerback 8.67924 -2.80073 -1.59877
upperback 1.2212 -3.86992 2.10968
thorax -3.33835 -1.92592 3.52234
lowerneck 2.14553 -16.5042 -19.0396
upperneck 0.981414 -23.0926 17.5718
head 4.21578 -11.5686 6.76557
rclavicle -1.65022e-014 1.14674e-014
rhumerus -35.1262 -7.48873 -78.8662
rradius 42.1203
rwrist -9.29746
rhand -15.8681 23.4461
rfingers 7.12502
rthumb 10.3274 -6.2803
lclavicle -1.65022e-014 1.14674e-014
lhumerus -40.506 18.1264 71.1786
lradius 26.0131
lwrist -14.3946
lhand 2.69171 44.1043
lfingers 7.12502
lthumb 28.1659 72.0084
rfemur -26.8064 3.47356 9.57098
rtibia 17.4137
rfoot -1.7499 -12.1598
rtoes -1.63636
lfemur 0.646286 0.778999 -15.8764
ltibia 21.5709
lfoot -21.9655 6.66679
ltoes -11.7287
1797
root 10.3925 17.585 6.76254 -175.473 -46.9995 183.093
lowerback 8.84476 -2.89442 -1.46687
upperback 1.25194 -3.98607 2.0933
thorax -3.40046 -1.98532 3.45342
lowerneck 2.15951 -16.4048 -18.8888
upperneck 0.854442 -22.9314 17.4821
head 4.11821 -11.4918 6.75372
rclavicle -7.15935e-014 -2.03009e-014
rhumerus -35.3529 -6.98338 -79.4503
rradius 41.8012
rwrist -9.05646
rhand -15.8502 23.3099
rfingers 7.12502
rthumb 10.3446 -6.41563
lclavicle -7.15935e-014 -2.03009e-014
lhumerus -40.8675 19.2885 70.3075
lradius 24.4132
lwrist -15.2774
lhand 2.80698 44.1077
lfingers 7.12502
lthumb 28.2761 71.9936
rfemur -26.619 3.46539 9.67464
rtibia 17.252
rfoot -1.79173 -12.8841
rtoes -2.39088
lfemur 0.672252 0.738068 -15.7274
ltibia 21.7487
lfoot -22.1467 6.55338
ltoes -11.6629
